<?xml version="1.0" encoding="utf-8"?>
<!-- Generator: Adobe Illustrator 16.0.0, SVG Export Plug-In . SVG Version: 6.00 Build 0)  -->
<!DOCTYPE svg PUBLIC "-//W3C//DTD SVG 1.1//EN" "http://www.w3.org/Graphics/SVG/1.1/DTD/svg11.dtd">
<svg version="1.1" id="Calque_1" xmlns="http://www.w3.org/2000/svg" xmlns:xlink="http://www.w3.org/1999/xlink" x="0px" y="0px"
	 width="50px" height="50px" viewBox="0 0 50 50" enable-background="new 0 0 50 50" xml:space="preserve">
<g>
	<path fill-rule="evenodd" clip-rule="evenodd" fill="#FFFFFF" d="M26.378,22.521c0.069-0.264,0.145-0.542,0.216-0.822
		c0.492-1.929,1.311-3.691,2.925-4.921c1.039-0.791,2.156-1.523,3.333-2.079c2.589-1.224,5.278-1.407,7.966-0.281
		c1.544,0.647,2.63,1.754,2.895,3.46c0.113,0.726,0.019,1.483,0.019,2.32c0.167-0.317,0.326-0.563,0.433-0.83
		c0.736-1.854,0.456-3.622-0.603-5.245c-1.642-2.521-4.194-3.392-7.025-3.665c-2.094-0.202-3.97,0.495-5.779,1.461
		c-3.422,1.827-5.033,4.78-5.322,8.543C25.372,21.272,25.507,22.065,26.378,22.521z M21.578,26.467
		c0.17-0.259,0.264-0.394,0.35-0.535c0.508-0.841,0.829-1.734,0.73-2.736c-0.18-1.816-1.795-3.332-3.717-3.591
		c-1.141-0.154-2.253-0.011-2.988,1.114c-0.16,0.245-0.527,0.365-0.815,0.51c-0.143,0.072-0.323,0.072-0.486,0.101
		c-1.195,0.216-1.657,0.957-1.309,2.132c0.398,1.342,1.216,2.448,2.067,3.522c1.432,1.81,3.72,2.171,5.61,0.895
		c0.601-0.405,1.17-0.858,1.755-1.288c-0.023-0.041-0.046-0.082-0.069-0.123C22.365,26.467,22.025,26.467,21.578,26.467z
		 M35.642,19.926c1.463,0.353,2.756,0.786,3.831,1.687c3.54,2.966,4.557,8.173,2.402,12.265c-0.724,1.376-1.455,2.749-2.169,4.131
		c-0.493,0.956-0.777,1.967-0.711,3.066c0.447-1.282,1.247-2.253,2.419-2.986c0,0.745-0.033,1.406,0.009,2.063
		c0.044,0.68,0.115,1.365,0.258,2.029c0.134,0.618,0.381,1.213,0.577,1.817c0.052-0.013,0.105-0.025,0.158-0.037
		c-0.023-2.492,0.384-4.897,1.29-7.227c0.409-1.047,0.717-2.141,0.987-3.233c0.581-2.348,0.937-4.718,0.505-7.144
		c-0.477-2.678-1.827-4.708-4.361-5.829C39.219,19.814,37.495,19.852,35.642,19.926z M24.437,30.225
		c1.063-0.524,1.833-1.243,2.177-2.479c1.192,2.328,0.832,4.456-0.21,6.567c0.052,0.02,0.104,0.039,0.157,0.059
		c0.438-0.353,0.875-0.705,1.352-1.088c0.128,0.797,0.193,1.569,0.386,2.309c0.189,0.731,0.508,1.429,0.77,2.141
		c0.044-0.017,0.086-0.033,0.129-0.05c0.077-1.232,0.153-2.465,0.232-3.741c0.589,0.358,1.042,0.635,1.494,0.91
		c0.047-0.047,0.095-0.095,0.142-0.142c-0.636-1.021-1.214-2.06-1.148-3.379c0.628,0.395,1.219,0.724,1.969,0.556
		c-0.04-0.082-0.053-0.14-0.087-0.171c-1.411-1.313-2.399-2.91-3.113-4.684c-1.479-3.67-4.134-6.115-7.784-7.54
		c-0.15-0.059-0.311-0.092-0.466-0.138c2.327,1.596,3.491,3.541,2.245,6.447c0.511-0.288,0.923-0.521,1.335-0.755
		C24.585,26.006,24.731,27.758,24.437,30.225z M13.569,14.815c0.935-0.488,2.068-0.619,2.589-1.601
		c-0.354-0.2-0.67-0.383-0.991-0.56c-0.103-0.056-0.244-0.165-0.318-0.133c-1.012,0.438-2.126,0.697-2.905,1.562
		c-1.452,1.61-2.167,3.533-2.458,5.659c-0.305,2.225,0.515,3.958,2.226,5.304c0.769,0.605,1.612,1.115,2.426,1.662
		c0.107,0.071,0.238,0.107,0.491,0.217c-0.162-0.23-0.231-0.337-0.309-0.438c-0.716-0.931-1.357-1.895-1.584-3.081
		c-0.292-1.522,0.123-2.205,1.607-2.646c0.406-0.121,0.807-0.272,1.185-0.462c0.351-0.177,0.525-0.5,0.326-0.881
		c-0.628-1.202-0.72-2.395,0.037-3.604C15.056,15.601,14.11,15.751,13.569,14.815z M36.188,31.944
		c0.043,0.032,0.086,0.065,0.128,0.098c0.448-0.364,0.953-0.679,1.336-1.104c1.575-1.747,1.417-4.651-0.323-6.481
		c-0.911-0.957-2.006-1.484-3.359-1.453c-2.081,0.048-3.746,1.04-5.303,2.285c-0.082,0.066-0.126,0.273-0.088,0.38
		c0.116,0.322,0.279,0.629,0.421,0.934c1.036-0.336,1.536-0.313,1.974,0.131c0.742,0.751,0.598,1.593,0.119,2.483
		c1.198-0.104,1.854-0.809,2.366-1.771c0.501,0.982,0.462,1.95,0.295,2.982c1.031,0.056,1.887-0.179,2.552-1.17
		C36.579,30.242,36.4,31.094,36.188,31.944z M35.161,20.478c1.323,0.694,2.664,1.146,3.154,2.689
		c-0.82-0.192-1.556-0.364-2.409-0.564c0.661,0.505,1.252,0.86,1.723,1.336c1.12,1.136,1.562,2.599,1.663,4.139
		c0.171,2.633-1.813,4.72-4.379,4.687c-0.396-0.006-0.79-0.04-1.269-0.066c0.393,0.612,0.964,0.646,1.468,0.718
		c1.978,0.274,3.678-0.307,5.047-1.863c0.067,0.187,0.146,0.294,0.136,0.39c-0.079,0.636-0.177,1.27-0.266,1.884
		c1.83-1.507,2.711-4.718,1.854-7.62C40.731,22.309,37.449,20.421,35.161,20.478z M16.866,15.256
		c-0.234,0.625-0.487,1.219-0.679,1.832c-0.206,0.657-0.094,1.286,0.32,1.924c0.5-1.616,1.816-2.486,2.939-3.719
		c0.188,1.131,0.355,2.136,0.522,3.141c0.364-0.85,0.644-1.646,0.893-2.452c0.316-1.022,0.668-2.038,0.896-3.081
		c0.328-1.503-0.283-2.882-1.436-3.49c-1.164-0.614-2.383,0.066-2.404,1.366c-0.029,1.875-0.98,3.115-2.603,3.923
		c-0.127,0.063-0.243,0.147-0.363,0.222c0.003,0.051,0.007,0.102,0.011,0.152C15.572,15.133,16.182,15.191,16.866,15.256z
		 M18.654,32.047c0.399,0.543,0.736,1.149,1.214,1.611c0.744,0.714,1.6,1.311,2.376,1.994c0.548,0.481,1.041,1.027,1.563,1.54
		c0.071,0.069,0.17,0.11,0.252,0.17c0.179,0.129,0.434,0.226,0.518,0.4c0.158,0.331,0.362,0.429,0.702,0.378
		c0.18-0.026,0.37-0.01,0.553,0.011c0.539,0.063,0.953-0.29,0.983-0.843c0.049-0.884,0.103-1.768,0.153-2.623
		c-0.569,0.258-1.105,0.952-2.031,0.875c0.325-1.007,1.148-1.743,1.229-2.775c-0.931-0.137-1.848-0.138-2.667-0.421
		C21.946,31.828,20.375,31.882,18.654,32.047z M18.553,3.926c-0.042-0.295-0.078-0.555-0.114-0.814
		c-0.047-0.025-0.094-0.052-0.14-0.078c-0.368,0.579-0.737,1.159-1.128,1.774C17.011,4.64,16.876,4.5,16.715,4.33
		c-0.916,0.639-1.201,1.597-1.307,2.627c-0.025,0.248,0.083,0.714,0.188,0.732c0.299,0.049,0.646-0.035,0.94-0.154
		c0.208-0.085,0.352-0.321,0.538-0.472c0.736-0.596,1.554-0.825,2.488-0.558c0.319,0.091,0.647,0.146,0.969,0.229
		c0.738,0.189,1.804-0.234,2.131-0.907c0.448-0.923,0.519-1.867,0.077-2.835c-0.207-0.454-0.5-0.569-0.925-0.382
		c-0.43,0.189-0.846,0.411-1.271,0.62c-0.066-0.333-0.129-0.65-0.228-1.146C19.679,2.747,19.143,3.309,18.553,3.926z M35.012,42.421
		c-0.052-2.071,0.462-3.934,1.924-5.552c0.269,0.702,0.506,1.324,0.72,1.886c0.517-1.842,1.021-3.646,1.526-5.45
		c-0.019,0.007-0.084,0.023-0.142,0.055c-1.26,0.679-2.589,0.964-4.019,0.721c-0.135-0.023-0.341,0.06-0.437,0.164
		c-0.729,0.785-1.675,1.102-2.697,1.368c0.454,0.127,0.91,0.155,1.365,0.198c0.153,0.016,0.303,0.07,0.454,0.108
		c-0.043,0.133-0.052,0.294-0.135,0.394c-0.381,0.461-0.78,0.903-1.174,1.352c0.021,0.05,0.04,0.099,0.061,0.148
		c0.792-0.335,1.584-0.67,2.418-1.021C34.737,38.68,34.314,40.566,35.012,42.421z M16.709,46.646c0.05-0.019,0.1-0.037,0.15-0.055
		c-0.064-0.585-0.064-0.584,0.586-0.799c0.069-0.023,0.14-0.056,0.196-0.102c0.531-0.439,1.094-0.169,1.805-0.161
		c-0.327,0.347-0.575,0.549-0.743,0.803c-0.18,0.271-0.33,0.579-0.41,0.894c-0.084,0.328,0.022,0.619,0.492,0.692
		c-0.146-0.562,0.068-0.808,0.613-0.915c0.266-0.052,0.597-0.331,0.693-0.585c0.358-0.953,1.071-1.047,1.917-0.933
		c0.146,0.02,0.309-0.029,0.441,0.019c0.235,0.084,0.455,0.215,0.679,0.331c0.254,0.132,0.52,0.402,0.754,0.377
		c0.489-0.055,0.715,0.112,0.779,0.661c0.245-0.477,0.172-0.821-0.109-1.109c-0.374-0.381-0.749-0.77-1.166-1.101
		c-0.596-0.472-0.769-1.088-0.488-1.729c0.375-0.853,0.817-1.696,1.36-2.45c0.399-0.554,1.006-0.956,1.519-1.425
		c-0.014-0.105-0.027-0.211-0.042-0.316c-0.858,0.529-1.298-0.1-1.769-0.521c-0.184,0.646-0.25,1.242-0.513,1.732
		c-0.735,1.365-1.552,2.688-2.337,4.028c-0.217,0.369-0.536,0.511-0.966,0.517c-0.795,0.013-1.592,0.048-2.384,0.119
		c-0.616,0.056-1.223,0.303-1.405,0.911C16.271,45.84,16.581,46.271,16.709,46.646z M41.622,3.604
		c-2.284,2.804-5.202,4.827-8.209,6.745c1.272-0.336,2.544-0.689,3.842-0.438c0.951,0.185,1.782,0.072,2.594-0.415
		c0.142-0.085,0.302-0.145,0.441-0.233c0.785-0.495,1.567-0.997,2.213-1.815c-1.684,0.629-2.902,0.849-3.553,0.626
		C40.27,6.827,41.325,5.441,41.622,3.604z M30.113,19.24c1.293-0.754,2.753-1.055,3.887-2.032c0.139-0.121,0.363-0.213,0.543-0.207
		c0.755,0.029,1.523,0.027,2.26,0.174c0.894,0.179,1.76,0.499,2.638,0.758c-1.099-1.228-2.688-1.457-4.203-1.981
		c0.285-0.541,0.546-1.035,0.818-1.551C32.706,14.625,30.011,16.427,30.113,19.24z M27.387,23.805
		c3.263-3.395,7.158-4.992,11.936-4.428c-1.15-0.637-2.322-0.897-3.561-0.951c-3.535-0.151-6.325,1.281-8.492,4.001
		C26.775,23.047,26.857,23.494,27.387,23.805z M5.702,35.341c0.215-0.527,0.419-0.987,0.587-1.458
		c0.092-0.26,0.102-0.547,0.187-0.81c0.215-0.663,0.469-0.822,1.172-0.824c0.276,0,0.567,0.004,0.825-0.078
		c0.368-0.115,0.501,0.064,0.521,0.355c0.069,1.034,0.184,2.05,0.852,2.907c0.008,0.01,0.024,0.016,0.062,0.039
		c0.63-1.107-0.236-2.133-0.23-3.205c2.049,0.194,1.762,0.494,2.139,2.007c0.097-0.265,0.195-0.54,0.19-0.813
		c-0.007-0.438,0.23-0.532,0.563-0.437c0.636,0.184,1.277,0.373,1.881,0.639c0.472,0.208,0.892,0.533,1.432,0.866
		c-0.07-0.251-0.068-0.444-0.164-0.547c-0.441-0.475-0.756-0.979-1.567-1.123c-1.291-0.229-2.537-0.763-3.771-1.244
		c-1.229-0.481-2.444-0.726-3.702-0.177c-1.029,0.449-1.981,1.071-3.142,1.215c-0.229,0.029-0.511,0.436-0.58,0.716
		c-0.063,0.254,0.129,0.572,0.21,0.862c0.063-0.017,0.126-0.033,0.188-0.05c-0.025-0.151-0.05-0.302-0.06-0.359
		c0.713-0.456,1.371-0.897,2.052-1.3c0.264-0.155,0.582-0.22,0.875-0.327c-0.094,0.311-0.158,0.635-0.288,0.928
		c-0.186,0.419-0.467,0.801-0.622,1.229C5.175,34.734,5.271,35.11,5.702,35.341z M20.478,31.318
		c-0.256-0.326-0.597-0.788-0.969-1.224c-0.123-0.143-0.318-0.231-0.493-0.32c-0.932-0.476-1.867-0.946-2.802-1.416
		c-0.455-0.229-0.915-0.446-1.366-0.683c-0.848-0.443-1.693-0.891-2.532-1.348c-0.192-0.104-0.357-0.257-0.535-0.388
		c0.178,1.012,0.65,1.81,1.322,2.49C15.206,30.567,17.913,31.108,20.478,31.318z M20.065,34.805
		c-0.022-0.058-0.034-0.113-0.063-0.157c-0.652-0.958-1.306-1.916-1.962-2.873c-0.04-0.059-0.084-0.135-0.142-0.153
		c-0.709-0.234-1.421-0.46-2.187-0.704c0,0.266,0,0.554,0,0.842c0,0.24,0.096,0.557-0.021,0.705
		c-0.39,0.491-0.058,0.745,0.269,0.976c0.378,0.266,0.545,0.565,0.549,1.05c0.007,0.883,0.708,1.296,1.543,0.997
		C18.708,35.252,19.373,35.038,20.065,34.805z M28.039,24.865c2.491-2.257,5.442-2.943,8.694-2.713
		c-0.676-1.049-2.187-1.567-3.666-1.313c-2.257,0.389-3.777,1.903-5.332,3.405C27.853,24.486,27.956,24.696,28.039,24.865z
		 M18.65,8.39c0.582,0.123,1.149,0.148,1.625,0.37c0.48,0.222,0.869,0.639,1.329,0.996c0.068-1.063-0.362-1.837-1.225-2.352
		c-0.798-0.476-1.646-0.727-2.614-0.273C18.63,7.354,18.766,7.577,18.65,8.39z M26.622,31.145c-1.981,0.009-3.901,0.144-5.735-0.571
		c1.68,1.226,3.57,1.564,5.614,1.401C26.54,31.711,26.573,31.477,26.622,31.145z M17.128,19.096c0.921,0,1.782,0,2.523,0
		c-0.245-0.845-0.488-1.685-0.741-2.56C18.289,17.368,17.452,18.017,17.128,19.096z M19.271,29.272
		c1.092,0.336,2.181,0.682,3.277,1.003c0.225,0.067,0.484,0.099,0.71,0.056c0.165-0.031,0.301-0.211,0.451-0.323
		c-0.101-0.131-0.175-0.321-0.308-0.382c-0.386-0.175-0.786-0.338-1.197-0.434C21.236,28.97,20.258,28.721,19.271,29.272z
		 M17.396,10.319c-0.511,0.291-0.948,0.487-1.322,0.768c-0.265,0.199-0.498,0.487-0.633,0.786c-0.051,0.113,0.171,0.483,0.336,0.539
		c0.622,0.209,1.306-0.179,1.469-0.819C17.344,11.206,17.344,10.796,17.396,10.319z M27.303,20.881
		c0.045,0.023,0.09,0.046,0.134,0.069c0.479-0.369,0.961-0.731,1.432-1.11c0.088-0.072,0.164-0.197,0.187-0.309
		c0.141-0.715,0.267-1.434,0.396-2.152c-0.044-0.025-0.088-0.051-0.133-0.076C28.646,18.495,27.974,19.688,27.303,20.881z
		 M15.484,10.452c-0.703,0.015-1.401,0.405-1.488,0.939c-0.035,0.214,0.164,0.467,0.257,0.703c0.186-0.128,0.429-0.216,0.544-0.39
		C15.059,11.313,15.255,10.879,15.484,10.452z M16.411,8.245c-1.053,0.104-1.519,0.605-1.446,1.527
		c0.547-0.322,1.095-0.643,1.658-0.973C16.55,8.607,16.479,8.423,16.411,8.245z M24.048,28.237c-0.847,0.094-1.694-0.576-2.5,0.297
		c0.451,0.063,0.831,0.109,1.208,0.171c0.376,0.062,0.75,0.137,1.154,0.211C23.959,28.678,23.994,28.503,24.048,28.237z
		 M29.887,28.278c0.217-0.395,1.096-0.203,0.828-0.945c-0.14-0.385-0.922-0.632-1.153-0.366
		C29.129,27.464,29.718,27.813,29.887,28.278z M36.936,14.299c-0.104,0.098-0.233,0.179-0.306,0.296
		c-0.164,0.264-0.332,0.534-0.431,0.825c-0.042,0.121,0.074,0.42,0.145,0.429c0.207,0.026,0.566,0.01,0.617-0.103
		c0.185-0.403,0.27-0.851,0.37-1.287C37.335,14.441,37.116,14.371,36.936,14.299z M17.965,9.54c0.049-0.526,0.098-0.878,0.107-1.23
		c0.003-0.139-0.082-0.28-0.127-0.42c-0.161,0.054-0.362,0.066-0.474,0.172c-0.165,0.157-0.267,0.381-0.435,0.636
		C17.297,8.933,17.559,9.17,17.965,9.54z M23.864,26.198c-0.413,0.444-0.748,0.805-1.14,1.226c0.49,0.041,0.855,0.071,1.321,0.109
		C23.984,27.086,23.93,26.684,23.864,26.198z M15.551,9.727c0.012,0.084,0.023,0.167,0.035,0.251
		c0.511-0.072,1.022-0.144,1.542-0.217c-0.144-0.685-0.223-0.733-0.711-0.49C16.125,9.416,15.84,9.574,15.551,9.727z M26.619,30.622
		c0-0.396,0-0.776,0-1.158c0.048,0.068,0.096,0.139,0.144,0.206c-0.395,0.298-0.789,0.597-1.156,0.874
		C25.889,30.565,26.214,30.59,26.619,30.622z M35.532,17.504c-0.438,0.008-0.864-0.239-1.166,0.352
		C34.807,17.804,35.23,18.047,35.532,17.504z"/>
	<path fill-rule="evenodd" clip-rule="evenodd" fill="#FFFFFF" d="M26.378,22.521c-0.871-0.456-1.006-1.248-0.944-2.059
		c0.289-3.764,1.9-6.717,5.322-8.543c1.81-0.966,3.686-1.663,5.779-1.461c2.831,0.273,5.384,1.144,7.025,3.665
		c1.059,1.623,1.339,3.392,0.603,5.245c-0.106,0.267-0.266,0.513-0.433,0.83c0-0.837,0.095-1.594-0.019-2.32
		c-0.265-1.706-1.351-2.813-2.895-3.46c-2.688-1.125-5.377-0.943-7.966,0.281c-1.177,0.556-2.294,1.288-3.333,2.079
		c-1.614,1.229-2.433,2.992-2.925,4.921C26.522,21.978,26.447,22.257,26.378,22.521z"/>
	<path fill-rule="evenodd" clip-rule="evenodd" fill="#FFFFFF" d="M21.578,26.467c0.447,0,0.787,0,1.128,0
		c0.023,0.041,0.046,0.082,0.069,0.123c-0.584,0.43-1.154,0.883-1.755,1.288c-1.89,1.276-4.178,0.915-5.61-0.895
		c-0.852-1.074-1.669-2.18-2.067-3.522c-0.348-1.175,0.113-1.916,1.309-2.132c0.164-0.029,0.343-0.029,0.486-0.101
		c0.288-0.145,0.656-0.265,0.815-0.51c0.734-1.125,1.847-1.269,2.988-1.114c1.922,0.26,3.537,1.775,3.717,3.591
		c0.099,1.001-0.222,1.895-0.73,2.736C21.842,26.073,21.748,26.208,21.578,26.467z"/>
	<path fill-rule="evenodd" clip-rule="evenodd" fill="#FFFFFF" d="M35.642,19.926c1.854-0.074,3.577-0.111,5.195,0.604
		c2.534,1.121,3.885,3.15,4.361,5.829c0.432,2.426,0.076,4.796-0.505,7.144c-0.271,1.093-0.578,2.187-0.987,3.233
		c-0.906,2.329-1.313,4.734-1.29,7.227c-0.053,0.012-0.106,0.024-0.158,0.037c-0.196-0.604-0.443-1.199-0.577-1.817
		c-0.143-0.664-0.214-1.35-0.258-2.029c-0.042-0.657-0.009-1.318-0.009-2.063c-1.172,0.733-1.972,1.704-2.419,2.986
		c-0.066-1.1,0.218-2.11,0.711-3.066c0.714-1.382,1.445-2.755,2.169-4.131c2.154-4.092,1.138-9.299-2.402-12.265
		C38.397,20.712,37.104,20.279,35.642,19.926z"/>
	<path fill-rule="evenodd" clip-rule="evenodd" fill="#FFFFFF" d="M24.437,30.225c0.294-2.467,0.149-4.219-0.422-5.178
		c-0.412,0.234-0.825,0.467-1.335,0.755c1.247-2.906,0.083-4.851-2.245-6.447c0.156,0.045,0.316,0.079,0.466,0.138
		c3.649,1.424,6.305,3.869,7.784,7.54c0.714,1.773,1.702,3.37,3.113,4.684c0.034,0.031,0.047,0.089,0.087,0.171
		c-0.75,0.168-1.341-0.161-1.969-0.556c-0.065,1.319,0.513,2.358,1.148,3.379c-0.047,0.047-0.095,0.095-0.142,0.142
		c-0.452-0.275-0.905-0.552-1.494-0.91c-0.079,1.276-0.155,2.509-0.232,3.741c-0.043,0.017-0.085,0.033-0.129,0.05
		c-0.262-0.712-0.58-1.409-0.77-2.141c-0.192-0.739-0.258-1.512-0.386-2.309c-0.477,0.383-0.914,0.735-1.352,1.088
		c-0.053-0.02-0.105-0.039-0.157-0.059c1.042-2.111,1.402-4.239,0.21-6.567C26.27,28.981,25.5,29.7,24.437,30.225z"/>
	<path fill-rule="evenodd" clip-rule="evenodd" fill="#FFFFFF" d="M13.569,14.815c0.541,0.936,1.486,0.785,2.321,0.999
		c-0.757,1.209-0.666,2.402-0.037,3.604c0.2,0.38,0.025,0.704-0.326,0.881c-0.377,0.19-0.779,0.341-1.185,0.462
		c-1.484,0.441-1.899,1.124-1.607,2.646c0.227,1.186,0.869,2.15,1.584,3.081c0.077,0.102,0.146,0.208,0.309,0.438
		c-0.252-0.109-0.383-0.146-0.491-0.217c-0.813-0.547-1.657-1.057-2.426-1.662c-1.711-1.346-2.531-3.08-2.226-5.304
		c0.291-2.126,1.006-4.049,2.458-5.659c0.779-0.865,1.894-1.124,2.905-1.562c0.074-0.032,0.215,0.077,0.318,0.133
		c0.321,0.177,0.638,0.359,0.991,0.56C15.637,14.197,14.504,14.328,13.569,14.815z"/>
	<path fill-rule="evenodd" clip-rule="evenodd" fill="#FFFFFF" d="M36.188,31.944c0.212-0.851,0.391-1.702,0.117-2.686
		c-0.665,0.991-1.521,1.226-2.552,1.17c0.167-1.032,0.206-2-0.295-2.982c-0.512,0.962-1.168,1.667-2.366,1.771
		c0.479-0.891,0.623-1.732-0.119-2.483c-0.438-0.444-0.938-0.467-1.974-0.131c-0.142-0.305-0.305-0.611-0.421-0.934
		c-0.038-0.106,0.006-0.313,0.088-0.38c1.557-1.245,3.222-2.237,5.303-2.285c1.354-0.032,2.448,0.496,3.359,1.453
		c1.74,1.83,1.898,4.734,0.323,6.481c-0.383,0.425-0.888,0.739-1.336,1.104C36.274,32.01,36.231,31.977,36.188,31.944z"/>
	<path fill-rule="evenodd" clip-rule="evenodd" fill="#FFFFFF" d="M35.161,20.478c2.288-0.057,5.57,1.831,6.722,5.728
		c0.857,2.902-0.023,6.113-1.854,7.62c0.089-0.614,0.187-1.248,0.266-1.884c0.011-0.096-0.068-0.203-0.136-0.39
		c-1.369,1.557-3.069,2.138-5.047,1.863c-0.504-0.071-1.075-0.105-1.468-0.718c0.479,0.026,0.873,0.061,1.269,0.066
		c2.566,0.033,4.55-2.054,4.379-4.687c-0.102-1.54-0.543-3.003-1.663-4.139c-0.471-0.476-1.062-0.831-1.723-1.336
		c0.854,0.2,1.589,0.373,2.409,0.564C37.825,21.624,36.484,21.172,35.161,20.478z"/>
	<path fill-rule="evenodd" clip-rule="evenodd" fill="#FFFFFF" d="M16.866,15.256c-0.684-0.065-1.294-0.124-1.904-0.182
		c-0.003-0.05-0.007-0.101-0.011-0.152c0.121-0.075,0.236-0.16,0.363-0.222c1.622-0.808,2.574-2.048,2.603-3.923
		c0.021-1.3,1.24-1.98,2.404-1.366c1.153,0.608,1.764,1.987,1.436,3.49c-0.228,1.042-0.58,2.059-0.896,3.081
		c-0.25,0.806-0.529,1.603-0.893,2.452c-0.167-1.005-0.334-2.01-0.522-3.141c-1.124,1.232-2.44,2.103-2.939,3.719
		c-0.414-0.638-0.526-1.267-0.32-1.924C16.378,16.475,16.631,15.881,16.866,15.256z"/>
	<path fill-rule="evenodd" clip-rule="evenodd" fill="#FFFFFF" d="M18.654,32.047c1.72-0.165,3.292-0.219,4.845,0.317
		c0.82,0.283,1.737,0.284,2.667,0.421c-0.081,1.032-0.904,1.769-1.229,2.775c0.926,0.077,1.462-0.617,2.031-0.875
		c-0.051,0.855-0.104,1.739-0.153,2.623c-0.03,0.553-0.444,0.906-0.983,0.843c-0.183-0.021-0.373-0.037-0.553-0.011
		c-0.339,0.051-0.543-0.047-0.702-0.378c-0.084-0.175-0.338-0.271-0.518-0.4c-0.082-0.06-0.182-0.101-0.252-0.17
		c-0.522-0.513-1.015-1.059-1.563-1.54c-0.776-0.684-1.633-1.28-2.376-1.994C19.39,33.196,19.054,32.59,18.654,32.047z"/>
	<path fill-rule="evenodd" clip-rule="evenodd" fill="#FFFFFF" d="M18.553,3.926c0.59-0.618,1.126-1.18,1.761-1.844
		c0.099,0.496,0.162,0.813,0.228,1.146c0.425-0.209,0.841-0.431,1.271-0.62c0.425-0.187,0.718-0.071,0.925,0.382
		c0.442,0.968,0.371,1.912-0.077,2.835c-0.327,0.673-1.393,1.097-2.131,0.907c-0.322-0.083-0.65-0.137-0.969-0.229
		c-0.934-0.267-1.752-0.038-2.488,0.558c-0.186,0.151-0.329,0.387-0.538,0.472c-0.293,0.119-0.641,0.204-0.94,0.154
		c-0.105-0.018-0.214-0.484-0.188-0.732c0.106-1.03,0.391-1.988,1.307-2.627c0.162,0.169,0.296,0.31,0.456,0.479
		c0.391-0.616,0.76-1.195,1.128-1.774c0.046,0.026,0.093,0.052,0.14,0.078C18.475,3.372,18.511,3.631,18.553,3.926z"/>
	<path fill-rule="evenodd" clip-rule="evenodd" fill="#FFFFFF" d="M35.012,42.421c-0.697-1.854-0.274-3.741-0.135-5.63
		c-0.834,0.352-1.626,0.687-2.418,1.021c-0.021-0.05-0.04-0.099-0.061-0.148c0.394-0.448,0.793-0.891,1.174-1.352
		c0.083-0.1,0.092-0.261,0.135-0.394c-0.151-0.038-0.301-0.093-0.454-0.108c-0.455-0.043-0.911-0.071-1.365-0.198
		c1.022-0.267,1.969-0.583,2.697-1.368c0.096-0.104,0.302-0.188,0.437-0.164c1.43,0.243,2.759-0.042,4.019-0.721
		c0.058-0.031,0.123-0.048,0.142-0.055c-0.506,1.804-1.01,3.608-1.526,5.45c-0.214-0.562-0.451-1.184-0.72-1.886
		C35.474,38.487,34.96,40.35,35.012,42.421z"/>
	<path fill-rule="evenodd" clip-rule="evenodd" fill="#FFFFFF" d="M16.709,46.646c-0.128-0.375-0.439-0.806-0.346-1.115
		c0.182-0.608,0.789-0.855,1.405-0.911c0.792-0.071,1.589-0.106,2.384-0.119c0.43-0.006,0.749-0.147,0.966-0.517
		c0.785-1.341,1.602-2.663,2.337-4.028c0.264-0.49,0.33-1.087,0.513-1.732c0.471,0.421,0.91,1.05,1.769,0.521
		c0.015,0.105,0.028,0.211,0.042,0.316c-0.513,0.469-1.12,0.871-1.519,1.425c-0.542,0.754-0.985,1.598-1.36,2.45
		c-0.281,0.641-0.108,1.257,0.488,1.729c0.417,0.331,0.792,0.72,1.166,1.101c0.281,0.288,0.354,0.633,0.109,1.109
		c-0.064-0.549-0.29-0.716-0.779-0.661c-0.234,0.025-0.5-0.245-0.754-0.377c-0.224-0.116-0.443-0.247-0.679-0.331
		c-0.132-0.048-0.295,0.001-0.441-0.019c-0.847-0.114-1.56-0.021-1.917,0.933c-0.096,0.254-0.427,0.533-0.693,0.585
		c-0.545,0.107-0.76,0.354-0.613,0.915c-0.47-0.073-0.577-0.364-0.492-0.692c0.08-0.314,0.23-0.623,0.41-0.894
		c0.168-0.254,0.416-0.456,0.743-0.803c-0.711-0.008-1.274-0.278-1.805,0.161c-0.056,0.046-0.126,0.078-0.196,0.102
		c-0.651,0.215-0.651,0.214-0.586,0.799C16.81,46.608,16.76,46.627,16.709,46.646z"/>
	<path fill-rule="evenodd" clip-rule="evenodd" fill="#FFFFFF" d="M41.622,3.604c-0.297,1.837-1.353,3.223-2.672,4.472
		c0.65,0.222,1.869,0.003,3.553-0.626c-0.646,0.818-1.428,1.32-2.213,1.815c-0.14,0.088-0.3,0.147-0.441,0.233
		c-0.812,0.487-1.643,0.6-2.594,0.415c-1.298-0.251-2.569,0.101-3.842,0.438C36.42,8.431,39.338,6.408,41.622,3.604z"/>
	<path fill-rule="evenodd" clip-rule="evenodd" fill="#FFFFFF" d="M30.113,19.24c-0.103-2.813,2.593-4.615,5.942-4.838
		c-0.272,0.516-0.533,1.01-0.818,1.551c1.516,0.525,3.104,0.754,4.203,1.981c-0.878-0.259-1.744-0.579-2.638-0.758
		c-0.736-0.147-1.505-0.145-2.26-0.174c-0.18-0.006-0.404,0.086-0.543,0.207C32.866,18.185,31.406,18.485,30.113,19.24z"/>
	<path fill-rule="evenodd" clip-rule="evenodd" fill="#FFFFFF" d="M27.387,23.805c-0.529-0.311-0.611-0.757-0.117-1.378
		c2.167-2.72,4.957-4.152,8.492-4.001c1.238,0.054,2.41,0.314,3.561,0.951C34.545,18.813,30.649,20.41,27.387,23.805z"/>
	<path fill-rule="evenodd" clip-rule="evenodd" fill="#FFFFFF" d="M5.702,35.341c-0.43-0.23-0.527-0.606-0.388-0.988
		c0.154-0.429,0.436-0.811,0.622-1.229c0.13-0.293,0.194-0.617,0.288-0.928c-0.293,0.107-0.611,0.172-0.875,0.327
		c-0.681,0.402-1.338,0.844-2.052,1.3c0.01,0.058,0.035,0.208,0.06,0.359c-0.063,0.017-0.126,0.033-0.188,0.05
		c-0.081-0.29-0.273-0.608-0.21-0.862c0.069-0.28,0.351-0.687,0.58-0.716c1.16-0.144,2.112-0.766,3.142-1.215
		c1.257-0.549,2.472-0.305,3.702,0.177c1.234,0.481,2.48,1.016,3.771,1.244c0.811,0.144,1.126,0.648,1.567,1.123
		c0.095,0.103,0.093,0.296,0.164,0.547c-0.54-0.333-0.959-0.658-1.432-0.866c-0.604-0.266-1.245-0.455-1.881-0.639
		c-0.333-0.096-0.57-0.001-0.563,0.437c0.004,0.273-0.094,0.549-0.19,0.813c-0.377-1.513-0.09-1.813-2.139-2.007
		c-0.006,1.072,0.86,2.098,0.23,3.205c-0.038-0.023-0.054-0.029-0.062-0.039c-0.667-0.857-0.783-1.873-0.852-2.907
		c-0.02-0.291-0.153-0.471-0.521-0.355c-0.258,0.082-0.549,0.078-0.825,0.078c-0.703,0.002-0.957,0.161-1.172,0.824
		c-0.084,0.263-0.094,0.55-0.187,0.81C6.121,34.354,5.917,34.813,5.702,35.341z"/>
	<path fill-rule="evenodd" clip-rule="evenodd" fill="#FFFFFF" d="M20.478,31.318c-2.565-0.21-5.272-0.751-7.375-2.888
		c-0.672-0.681-1.144-1.479-1.322-2.49c0.177,0.131,0.343,0.283,0.535,0.388c0.839,0.457,1.685,0.904,2.532,1.348
		c0.451,0.236,0.911,0.453,1.366,0.683c0.935,0.47,1.87,0.94,2.802,1.416c0.174,0.089,0.37,0.178,0.493,0.32
		C19.881,30.53,20.222,30.992,20.478,31.318z"/>
	<path fill-rule="evenodd" clip-rule="evenodd" fill="#FFFFFF" d="M20.065,34.805c-0.693,0.233-1.357,0.447-2.014,0.682
		c-0.835,0.299-1.536-0.114-1.543-0.997c-0.004-0.484-0.171-0.784-0.549-1.05c-0.327-0.23-0.658-0.484-0.269-0.976
		c0.117-0.148,0.02-0.465,0.021-0.705c0-0.288,0-0.576,0-0.842c0.766,0.244,1.478,0.47,2.187,0.704
		c0.058,0.019,0.103,0.095,0.142,0.153c0.656,0.957,1.31,1.915,1.962,2.873C20.032,34.691,20.043,34.747,20.065,34.805z"/>
	<path fill-rule="evenodd" clip-rule="evenodd" fill="#FFFFFF" d="M28.039,24.865c-0.083-0.169-0.187-0.379-0.304-0.62
		c1.555-1.502,3.075-3.016,5.332-3.405c1.479-0.255,2.99,0.263,3.666,1.313C33.481,21.922,30.53,22.608,28.039,24.865z"/>
	<path fill-rule="evenodd" clip-rule="evenodd" fill="#FFFFFF" d="M18.65,8.39c0.116-0.813-0.02-1.035-0.885-1.259
		c0.969-0.454,1.816-0.203,2.614,0.273c0.863,0.515,1.293,1.288,1.225,2.352c-0.46-0.356-0.849-0.773-1.329-0.996
		C19.799,8.538,19.232,8.513,18.65,8.39z"/>
	<path fill-rule="evenodd" clip-rule="evenodd" fill="#FFFFFF" d="M26.622,31.145c-0.049,0.332-0.082,0.566-0.121,0.83
		c-2.044,0.163-3.934-0.176-5.614-1.401C22.721,31.288,24.641,31.153,26.622,31.145z"/>
	<path fill-rule="evenodd" clip-rule="evenodd" fill="#FFFFFF" d="M17.128,19.096c0.324-1.079,1.161-1.728,1.783-2.56
		c0.252,0.875,0.496,1.714,0.741,2.56C18.91,19.096,18.049,19.096,17.128,19.096z"/>
	<path fill-rule="evenodd" clip-rule="evenodd" fill="#FFFFFF" d="M19.271,29.272c0.988-0.552,1.966-0.303,2.934-0.08
		c0.411,0.096,0.811,0.259,1.197,0.434c0.132,0.061,0.207,0.251,0.308,0.382c-0.149,0.112-0.286,0.292-0.451,0.323
		c-0.226,0.043-0.485,0.012-0.71-0.056C21.452,29.954,20.362,29.608,19.271,29.272z"/>
	<path fill-rule="evenodd" clip-rule="evenodd" fill="#FFFFFF" d="M17.396,10.319c-0.052,0.478-0.052,0.887-0.151,1.272
		c-0.163,0.64-0.847,1.029-1.469,0.819c-0.165-0.055-0.387-0.425-0.336-0.539c0.136-0.299,0.369-0.587,0.633-0.786
		C16.448,10.806,16.885,10.609,17.396,10.319z"/>
	<path fill-rule="evenodd" clip-rule="evenodd" fill="#FFFFFF" d="M27.303,20.881c0.671-1.193,1.344-2.386,2.016-3.578
		c0.045,0.025,0.089,0.051,0.133,0.076c-0.13,0.718-0.256,1.437-0.396,2.152c-0.022,0.112-0.099,0.237-0.187,0.309
		c-0.471,0.378-0.953,0.741-1.432,1.11C27.393,20.927,27.348,20.904,27.303,20.881z"/>
	<path fill-rule="evenodd" clip-rule="evenodd" fill="#FFFFFF" d="M15.484,10.452c-0.229,0.427-0.425,0.86-0.687,1.252
		c-0.115,0.174-0.359,0.262-0.544,0.39c-0.093-0.235-0.292-0.488-0.257-0.703C14.083,10.857,14.781,10.467,15.484,10.452z"/>
	<path fill-rule="evenodd" clip-rule="evenodd" fill="#FFFFFF" d="M16.411,8.245c0.068,0.178,0.139,0.362,0.212,0.554
		c-0.563,0.331-1.111,0.651-1.658,0.973C14.893,8.851,15.358,8.35,16.411,8.245z"/>
	<path fill-rule="evenodd" clip-rule="evenodd" fill="#FFFFFF" d="M24.048,28.237c-0.054,0.266-0.089,0.44-0.137,0.679
		c-0.404-0.074-0.778-0.149-1.154-0.211c-0.377-0.062-0.757-0.108-1.208-0.171C22.354,27.661,23.201,28.331,24.048,28.237z"/>
	<path fill-rule="evenodd" clip-rule="evenodd" fill="#FFFFFF" d="M29.887,28.278c-0.169-0.465-0.758-0.814-0.325-1.312
		c0.231-0.266,1.014-0.019,1.153,0.366C30.982,28.075,30.104,27.884,29.887,28.278z"/>
	<path fill-rule="evenodd" clip-rule="evenodd" fill="#FFFFFF" d="M36.936,14.299c0.181,0.071,0.399,0.142,0.396,0.16
		c-0.101,0.436-0.186,0.884-0.37,1.287c-0.051,0.113-0.41,0.129-0.617,0.103c-0.07-0.009-0.187-0.309-0.145-0.429
		c0.099-0.291,0.267-0.561,0.431-0.825C36.702,14.479,36.832,14.397,36.936,14.299z"/>
	<path fill-rule="evenodd" clip-rule="evenodd" fill="#FFFFFF" d="M17.965,9.54c-0.406-0.369-0.668-0.606-0.928-0.843
		c0.168-0.255,0.27-0.479,0.435-0.636c0.112-0.106,0.313-0.118,0.474-0.172c0.045,0.14,0.13,0.281,0.127,0.42
		C18.063,8.662,18.014,9.013,17.965,9.54z"/>
	<path fill-rule="evenodd" clip-rule="evenodd" fill="#FFFFFF" d="M23.864,26.198c0.066,0.485,0.121,0.888,0.181,1.335
		c-0.465-0.038-0.831-0.068-1.321-0.109C23.116,27.003,23.451,26.643,23.864,26.198z"/>
	<path fill-rule="evenodd" clip-rule="evenodd" fill="#FFFFFF" d="M15.551,9.727c0.289-0.153,0.574-0.311,0.866-0.456
		c0.488-0.243,0.567-0.195,0.711,0.49c-0.519,0.073-1.03,0.145-1.542,0.217C15.574,9.894,15.563,9.811,15.551,9.727z"/>
	<path fill-rule="evenodd" clip-rule="evenodd" fill="#FFFFFF" d="M26.619,30.622c-0.405-0.032-0.73-0.057-1.013-0.078
		c0.367-0.277,0.762-0.576,1.156-0.874c-0.048-0.067-0.096-0.138-0.144-0.206C26.619,29.846,26.619,30.227,26.619,30.622z"/>
	<path fill-rule="evenodd" clip-rule="evenodd" fill="#FFFFFF" d="M35.532,17.504c-0.302,0.543-0.726,0.3-1.166,0.352
		C34.668,17.266,35.094,17.513,35.532,17.504z"/>
</g>
</svg>
