<?xml version="1.0" encoding="utf-8"?>
<!-- Generator: Adobe Illustrator 16.0.0, SVG Export Plug-In . SVG Version: 6.00 Build 0)  -->
<!DOCTYPE svg PUBLIC "-//W3C//DTD SVG 1.1//EN" "http://www.w3.org/Graphics/SVG/1.1/DTD/svg11.dtd">
<svg version="1.1" id="Calque_1" xmlns="http://www.w3.org/2000/svg" xmlns:xlink="http://www.w3.org/1999/xlink" x="0px" y="0px"
	 width="50px" height="50px" viewBox="0 0 50 50" enable-background="new 0 0 50 50" xml:space="preserve">
<g>
	<path fill-rule="evenodd" clip-rule="evenodd" fill="#FFFFFF" d="M26.027,14.155c0,4.023-0.004,8.045,0.005,12.068
		c0.002,0.488-0.105,0.888-0.572,1.119c-0.614,0.304-1.3-0.007-1.449-0.678c-0.055-0.247-0.052-0.509-0.052-0.765
		c-0.002-7.852-0.002-15.704,0-23.556c0-0.277-0.002-0.562,0.058-0.829c0.122-0.545,0.525-0.767,1.048-0.739
		c0.531,0.029,0.875,0.321,0.953,0.864c0.027,0.189,0.01,0.385,0.01,0.577C26.027,6.196,26.027,10.176,26.027,14.155z"/>
	<path fill-rule="evenodd" clip-rule="evenodd" fill="#FFFFFF" d="M32.845,45.703c-0.833,0.052-1.66,0.228-2.453,0.128
		c-1.504-0.191-2.617-1.576-2.641-3.099c-0.015-0.941-0.014-1.884-0.001-2.824c0.025-1.783,1.514-3.237,3.31-3.249
		c1.801-0.01,3.303,1.417,3.326,3.217c0.027,2.053,0.03,4.108-0.002,6.162c-0.023,1.433-0.787,2.414-2.082,2.962
		c-1.191,0.502-2.93,0.136-3.769-0.74c-0.452-0.473-0.525-0.903-0.166-1.229c0.436-0.395,0.818-0.283,1.218,0.124
		c0.619,0.629,1.65,0.75,2.375,0.342C32.682,47.09,32.983,46.408,32.845,45.703z M32.895,41.292c0-0.427,0.006-0.854-0.002-1.281
		c-0.02-1.036-0.819-1.846-1.817-1.846c-0.959-0.001-1.796,0.788-1.829,1.78c-0.03,0.917-0.033,1.836,0.002,2.753
		c0.037,0.98,0.909,1.776,1.858,1.756c0.979-0.021,1.76-0.813,1.786-1.818C32.902,42.188,32.895,41.74,32.895,41.292z"/>
	<path fill-rule="evenodd" clip-rule="evenodd" fill="#FFFFFF" d="M23.305,41.865c-0.62,0-1.24,0.014-1.859-0.006
		c-0.375-0.012-0.528,0.113-0.543,0.509c-0.038,1.041,0.333,1.777,1.15,2.175c0.841,0.408,1.67,0.257,2.459-0.472
		c0.359-0.331,0.739-0.361,1.083-0.046c0.359,0.33,0.307,0.746,0.005,1.091c-0.906,1.036-2.1,1.285-3.382,1.057
		c-1.477-0.264-2.596-1.359-2.734-2.847c-0.123-1.328-0.104-2.695,0.063-4.019c0.199-1.584,1.713-2.697,3.296-2.647
		c1.672,0.054,3.029,1.274,3.207,2.921c0.055,0.508,0.049,1.025,0.029,1.536c-0.019,0.478-0.295,0.741-0.785,0.744
		c-0.663,0.004-1.325,0.001-1.988,0.001C23.305,41.863,23.305,41.864,23.305,41.865z M24.496,40.372
		c0.205-1.151-0.486-2.074-1.567-2.198c-0.972-0.113-1.946,0.731-2.01,1.729c-0.02,0.318,0.084,0.475,0.426,0.473
		C22.386,40.366,23.428,40.372,24.496,40.372z"/>
	<path fill-rule="evenodd" clip-rule="evenodd" fill="#FFFFFF" d="M40.102,41.866c-0.642,0-1.284,0.008-1.927-0.004
		c-0.318-0.006-0.442,0.105-0.469,0.441c-0.072,0.959,0.179,1.737,1.076,2.209c0.849,0.446,1.691,0.301,2.521-0.446
		c0.365-0.33,0.73-0.344,1.082-0.027c0.35,0.317,0.28,0.691,0.031,1.039c-0.689,0.961-2.383,1.417-3.746,1.018
		c-1.334-0.39-2.407-1.646-2.438-2.913c-0.028-1.155-0.036-2.313,0.001-3.467c0.053-1.651,1.58-3.044,3.298-3.057
		c1.685-0.012,3.196,1.329,3.317,2.961c0.034,0.469,0.021,0.941,0.02,1.411c-0.002,0.553-0.299,0.824-0.84,0.83
		c-0.642,0.007-1.283,0.002-1.926,0.002C40.102,41.864,40.102,41.865,40.102,41.866z M41.312,40.371
		c0.132-1.19-0.479-2.01-1.554-2.188c-0.875-0.145-1.854,0.559-2.011,1.481c-0.047,0.279-0.198,0.696,0.342,0.702
		C39.15,40.378,40.211,40.371,41.312,40.371z"/>
	<path fill-rule="evenodd" clip-rule="evenodd" fill="#FFFFFF" d="M7.134,39.679c0-1.817-0.019-3.637,0.019-5.454
		c0.006-0.289,0.187-0.688,0.416-0.837c0.472-0.307,1.002,0.089,1.008,0.712c0.012,1.497,0.004,2.994,0.004,4.491
		c0,1.732,0.025,3.466-0.013,5.198c-0.014,0.625,0.132,0.865,0.811,0.839c1.409-0.055,2.823-0.008,4.234-0.021
		c0.504-0.004,0.846,0.163,0.862,0.707c0.018,0.578-0.33,0.788-0.86,0.787c-1.861-0.001-3.722,0.007-5.583-0.004
		c-0.669-0.004-0.89-0.239-0.894-0.965C7.126,43.315,7.134,41.497,7.134,39.679z"/>
	<path fill-rule="evenodd" clip-rule="evenodd" fill="#FFFFFF" d="M21.523,24.168c0,0.727,0.012,1.455-0.004,2.183
		c-0.015,0.693-0.484,1.161-1.113,1.144c-0.614-0.018-1.031-0.458-1.037-1.148c-0.012-1.455-0.013-2.909,0.001-4.364
		c0.007-0.664,0.467-1.118,1.074-1.117c0.6,0.001,1.057,0.46,1.074,1.121C21.538,22.713,21.523,23.441,21.523,24.168z"/>
	<path fill-rule="evenodd" clip-rule="evenodd" fill="#FFFFFF" d="M17.441,41.465c0,1.262-0.009,2.523,0.005,3.785
		c0.005,0.479-0.16,0.81-0.664,0.836C16.254,46.114,16,45.805,16,45.291c-0.003-2.545-0.002-5.09-0.002-7.635
		c0-0.517,0.238-0.819,0.773-0.797c0.508,0.021,0.681,0.337,0.675,0.82C17.433,38.942,17.441,40.203,17.441,41.465z"/>
	<path fill-rule="evenodd" clip-rule="evenodd" fill="#FFFFFF" d="M30.586,24.188c0,0.728,0.015,1.454-0.005,2.181
		c-0.019,0.652-0.439,1.088-1.011,1.1c-0.596,0.011-1.044-0.454-1.049-1.134c-0.011-1.432-0.01-2.865,0-4.298
		c0.005-0.702,0.411-1.115,1.049-1.108c0.611,0.006,0.991,0.392,1.011,1.079C30.602,22.732,30.586,23.46,30.586,24.188z"/>
	<path fill-rule="evenodd" clip-rule="evenodd" fill="#FFFFFF" d="M14.786,26.007c-0.027-0.613,0.095-1.135,0.719-1.372
		c0.498-0.19,0.926-0.045,1.249,0.362c0.329,0.416,0.322,1.667-0.011,2.071c-0.33,0.402-0.758,0.543-1.255,0.344
		C14.834,27.15,14.754,26.592,14.786,26.007z"/>
	<path fill-rule="evenodd" clip-rule="evenodd" fill="#FFFFFF" d="M35.142,26.045c0.003,1.117-0.669,1.701-1.488,1.299
		c-0.53-0.262-0.582-0.736-0.579-1.245c0.003-0.536-0.03-1.081,0.556-1.383c0.662-0.343,1.438,0.074,1.51,0.82
		C35.156,25.703,35.142,25.876,35.142,26.045z"/>
	<path fill-rule="evenodd" clip-rule="evenodd" fill="#FFFFFF" d="M23.887,35.81c-0.227-0.116-0.391-0.172-0.521-0.272
		c-0.524-0.403-1.039-0.82-1.556-1.233c-0.32-0.256-0.416-0.619-0.122-0.875c0.171-0.149,0.625-0.183,0.818-0.059
		c0.59,0.378,1.137,0.834,1.654,1.311c0.15,0.139,0.225,0.464,0.182,0.673C24.309,35.527,24.051,35.656,23.887,35.81z"/>
	<path fill-rule="evenodd" clip-rule="evenodd" fill="#FFFFFF" d="M17.437,34.583c0.004,0.914-0.234,1.249-0.852,1.116
		c-0.882-0.189-0.526-0.93-0.582-1.466c-0.049-0.463,0.085-0.868,0.643-0.913c0.435-0.035,0.751,0.141,0.789,0.626
		C17.451,34.157,17.437,34.371,17.437,34.583z"/>
</g>
</svg>
