<?xml version="1.0" encoding="utf-8"?>
<!-- Generator: Adobe Illustrator 16.0.0, SVG Export Plug-In . SVG Version: 6.00 Build 0)  -->
<!DOCTYPE svg PUBLIC "-//W3C//DTD SVG 1.1//EN" "http://www.w3.org/Graphics/SVG/1.1/DTD/svg11.dtd">
<svg version="1.1" id="Calque_1" xmlns="http://www.w3.org/2000/svg" xmlns:xlink="http://www.w3.org/1999/xlink" x="0px" y="0px"
	 width="50px" height="50px" viewBox="0 0 50 50" enable-background="new 0 0 50 50" xml:space="preserve">
<g>
	<path fill-rule="evenodd" clip-rule="evenodd" fill="#FFFFFF" d="M30.146,37.492c-0.008,0.068-0.017,0.114-0.017,0.159
		c0,2.173,0.002,4.348-0.005,6.521c-0.001,0.181,0.085,0.244,0.226,0.307c1.157,0.504,2.37,0.789,3.624,0.905
		c1.288,0.118,2.572,0.093,3.855-0.099c1.892-0.281,3.708-0.807,5.425-1.655c1.344-0.664,2.566-1.503,3.585-2.608
		c2.24-2.434,3.089-5.317,2.667-8.568c-0.373-2.88-1.805-5.146-4.166-6.828c-1.245-0.885-2.622-1.503-4.07-1.973
		c-0.098-0.032-0.199-0.062-0.289-0.108c-0.286-0.144-0.357-0.38-0.188-0.655c0.068-0.11,0.162-0.206,0.248-0.305
		c1.179-1.357,2.011-2.887,2.248-4.688c0.165-1.252-0.1-2.414-0.867-3.44c-0.587-0.785-1.349-1.358-2.201-1.818
		c-0.195-0.105-0.411-0.134-0.632-0.114c-0.31,0.027-0.536,0.198-0.617,0.496c-0.041,0.151-0.055,0.316-0.053,0.473
		c0.01,0.737-0.036,1.467-0.181,2.19c-0.496,2.495-1.878,4.313-4.178,5.411c-1.398,0.668-2.889,0.94-4.432,0.946
		c-0.283,0.001-0.32,0.027-0.39,0.297c-0.023,0.09-0.035,0.185-0.037,0.278c-0.018,0.738,0.268,1.357,0.759,1.887
		c0.598,0.644,1.362,0.969,2.217,1.063c0.766,0.085,1.538,0.109,2.307,0.176c0.906,0.079,1.785,0.279,2.595,0.711
		c1.534,0.819,2.596,2.055,3.194,3.688c0.378,1.033,0.537,2.093,0.368,3.189c-0.218,1.402-0.877,2.573-1.916,3.525
		c-1.294,1.188-2.832,1.825-4.583,1.939c-1.268,0.084-2.473-0.156-3.6-0.745C30.744,37.891,30.469,37.692,30.146,37.492z
		 M0.388,24.735c0.001,1.119,0.061,1.665,0.27,2.576c0.32,1.399,0.816,2.739,1.407,4.043c1.968,4.345,4.5,8.341,7.504,12.038
		c0.509,0.627,1.084,1.202,1.65,1.778c0.208,0.213,0.462,0.388,0.718,0.541c0.31,0.187,0.521,0.094,0.614-0.26
		c0.052-0.196,0.062-0.409,0.057-0.613c-0.017-0.722-0.198-1.414-0.387-2.104c-0.472-1.726-1.088-3.402-1.748-5.063
		c-0.871-2.194-1.773-4.374-2.655-6.563c-1.037-2.575-1.23-5.215-0.596-7.918c0.399-1.7,1.091-3.279,1.949-4.792
		c0.67-1.18,1.449-2.289,2.223-3.401c0.36-0.518,0.714-1.039,0.983-1.613c0.722-1.537,0.988-3.134,0.608-4.807
		c-0.303-1.33-0.978-2.416-2.162-3.144C10.51,5.242,10.2,5.044,9.874,4.876C8.929,4.392,7.937,4.099,6.86,4.219
		C6.258,4.286,5.7,4.471,5.254,4.903C4.902,5.244,4.936,5.604,5.353,5.857c0.223,0.135,0.479,0.217,0.712,0.335
		c0.242,0.124,0.492,0.242,0.708,0.402c0.339,0.251,0.486,0.615,0.479,1.035C7.248,7.788,7.224,7.948,7.189,8.103
		c-0.123,0.558-0.364,1.07-0.657,1.553c-0.634,1.045-1.285,2.081-1.938,3.115c-1.011,1.601-1.964,3.231-2.703,4.979
		C0.946,19.984,0.382,22.298,0.388,24.735z M17.746,31.172c0,0.413,0.01,0.828-0.003,1.241c-0.01,0.318-0.023,0.642-0.083,0.952
		c-0.052,0.275-0.242,0.333-0.455,0.153c-0.164-0.137-0.311-0.302-0.435-0.477c-0.858-1.203-1.706-2.411-2.561-3.615
		c-0.207-0.293-0.426-0.574-0.642-0.861c-0.191-0.253-0.453-0.391-0.763-0.438c-0.479-0.071-0.863,0.23-0.89,0.715
		c-0.011,0.186,0,0.381,0.044,0.56c0.556,2.22,1.261,4.391,2.227,6.47c0.345,0.742,0.742,1.458,1.252,2.104
		c0.574,0.728,1.313,1.211,2.193,1.464c1.237,0.354,2.283,0.034,3.11-0.962c0.297-0.358,0.527-0.756,0.716-1.179
		c0.404-0.909,0.647-1.866,0.789-2.845c0.217-1.499,0.412-3,0.622-4.499c0.25-1.779,0.575-3.545,1.033-5.283
		c0.517-1.961,1.194-3.861,2.178-5.643c0.997-1.809,2.258-3.396,3.917-4.649c2.134-1.613,4.573-2.399,7.21-2.643
		c0.604-0.055,0.979-0.34,1.123-0.93c0.188-0.772,0.031-1.455-0.595-1.991c-0.582-0.499-1.258-0.821-1.986-1.036
		c-0.913-0.27-1.845-0.323-2.793-0.243c-1.349,0.114-2.657,0.392-3.917,0.889c-2.102,0.83-3.844,2.156-5.313,3.857
		c-1.328,1.537-2.358,3.26-3.169,5.115C18.637,21.788,17.765,26.396,17.746,31.172z"/>
	<path fill-rule="evenodd" clip-rule="evenodd" fill="#FFFFFF" d="M30.146,37.492c0.322,0.2,0.598,0.398,0.896,0.555
		c1.127,0.589,2.332,0.829,3.6,0.745c1.751-0.114,3.289-0.752,4.583-1.939c1.039-0.952,1.698-2.123,1.916-3.525
		c0.169-1.097,0.01-2.156-0.368-3.189c-0.599-1.633-1.66-2.868-3.194-3.688c-0.81-0.432-1.688-0.632-2.595-0.711
		c-0.769-0.066-1.541-0.091-2.307-0.176c-0.854-0.095-1.619-0.42-2.217-1.063c-0.491-0.53-0.776-1.149-0.759-1.887
		c0.002-0.093,0.014-0.188,0.037-0.278c0.069-0.271,0.106-0.296,0.39-0.297c1.543-0.006,3.033-0.277,4.432-0.946
		c2.3-1.099,3.682-2.916,4.178-5.411c0.145-0.723,0.19-1.453,0.181-2.19c-0.002-0.157,0.012-0.322,0.053-0.473
		c0.081-0.297,0.308-0.468,0.617-0.496c0.221-0.02,0.437,0.009,0.632,0.114c0.853,0.46,1.614,1.033,2.201,1.818
		c0.768,1.026,1.032,2.188,0.867,3.44c-0.237,1.802-1.069,3.331-2.248,4.688c-0.086,0.099-0.18,0.195-0.248,0.305
		c-0.169,0.275-0.098,0.512,0.188,0.655c0.09,0.046,0.191,0.076,0.289,0.108c1.448,0.47,2.825,1.088,4.07,1.973
		c2.361,1.682,3.793,3.948,4.166,6.828c0.422,3.251-0.427,6.135-2.667,8.568c-1.019,1.105-2.241,1.944-3.585,2.608
		c-1.717,0.849-3.533,1.374-5.425,1.655c-1.283,0.191-2.567,0.217-3.855,0.099c-1.254-0.116-2.467-0.401-3.624-0.905
		c-0.141-0.063-0.227-0.126-0.226-0.307c0.007-2.173,0.005-4.348,0.005-6.521C30.13,37.606,30.139,37.561,30.146,37.492z"/>
	<path fill-rule="evenodd" clip-rule="evenodd" fill="#FFFFFF" d="M0.388,24.735c-0.006-2.437,0.559-4.751,1.503-6.984
		c0.739-1.748,1.692-3.379,2.703-4.979c0.653-1.034,1.304-2.07,1.938-3.115c0.293-0.483,0.535-0.995,0.657-1.553
		c0.035-0.155,0.059-0.315,0.062-0.474c0.008-0.419-0.139-0.784-0.479-1.035c-0.217-0.16-0.466-0.278-0.708-0.402
		c-0.233-0.119-0.489-0.2-0.712-0.335c-0.417-0.253-0.45-0.613-0.098-0.954C5.7,4.471,6.258,4.286,6.86,4.219
		c1.077-0.12,2.069,0.172,3.014,0.657c0.326,0.167,0.636,0.365,0.949,0.557c1.184,0.728,1.859,1.814,2.162,3.144
		c0.38,1.672,0.114,3.27-0.608,4.807c-0.269,0.574-0.623,1.095-0.983,1.613c-0.773,1.113-1.553,2.221-2.223,3.401
		c-0.858,1.513-1.549,3.092-1.949,4.792c-0.635,2.703-0.441,5.343,0.596,7.918c0.882,2.189,1.785,4.369,2.655,6.563
		c0.659,1.661,1.275,3.338,1.748,5.063c0.189,0.69,0.37,1.383,0.387,2.104c0.005,0.204-0.005,0.417-0.057,0.613
		c-0.093,0.354-0.304,0.446-0.614,0.26c-0.256-0.153-0.51-0.328-0.718-0.541c-0.565-0.576-1.141-1.151-1.65-1.778
		c-3.003-3.697-5.536-7.693-7.504-12.038c-0.591-1.304-1.087-2.644-1.407-4.043C0.449,26.4,0.389,25.854,0.388,24.735z"/>
	<path fill-rule="evenodd" clip-rule="evenodd" fill="#FFFFFF" d="M17.746,31.172c0.019-4.776,0.891-9.384,2.809-13.772
		c0.812-1.855,1.842-3.578,3.169-5.115c1.469-1.701,3.211-3.027,5.313-3.857c1.26-0.498,2.568-0.775,3.917-0.889
		c0.948-0.08,1.88-0.027,2.793,0.243c0.729,0.215,1.404,0.537,1.986,1.036c0.626,0.536,0.783,1.219,0.595,1.991
		c-0.144,0.59-0.519,0.875-1.123,0.93c-2.637,0.243-5.076,1.029-7.21,2.643c-1.659,1.252-2.92,2.84-3.917,4.649
		c-0.983,1.782-1.661,3.682-2.178,5.643c-0.458,1.738-0.783,3.504-1.033,5.283c-0.21,1.499-0.405,3-0.622,4.499
		c-0.142,0.979-0.385,1.936-0.789,2.845c-0.189,0.423-0.419,0.82-0.716,1.179c-0.827,0.996-1.873,1.315-3.11,0.962
		c-0.88-0.253-1.62-0.736-2.193-1.464c-0.51-0.646-0.907-1.362-1.252-2.104c-0.965-2.079-1.671-4.25-2.227-6.47
		c-0.045-0.179-0.055-0.374-0.044-0.56c0.027-0.484,0.412-0.786,0.89-0.715c0.31,0.047,0.572,0.185,0.763,0.438
		c0.215,0.287,0.435,0.568,0.642,0.861c0.855,1.204,1.703,2.412,2.561,3.615c0.124,0.175,0.271,0.34,0.435,0.477
		c0.213,0.18,0.403,0.122,0.455-0.153c0.06-0.311,0.073-0.634,0.083-0.952C17.756,32,17.746,31.585,17.746,31.172z"/>
</g>
</svg>
